<svg
xmlns="http://www.w3.org/2000/svg"
aria-hidden="true"
focusable="false" 
title="angle-down"   
alt="angle-down icon"
id="angle-down" 
class="fa-angle-down" 
width="1em"
height="1em"
preserveAspectRatio="xMidYMid meet"
    viewBox="0 0 1792 1792">
    <path d="M1395 864q0 13-10 23l-466 466q-10 10-23 10t-23-10l-466-466q-10-10-10-23t10-23l50-50q10-10 23-10t23 10l393 393 393-393q10-10 23-10t23 10l50 50q10 10 10 23zm0-384q0 13-10 23l-466 466q-10 10-23 10t-23-10l-466-466q-10-10-10-23t10-23l50-50q10-10 23-10t23 10l393 393 393-393q10-10 23-10t23 10l50 50q10 10 10 23z"></path>
</svg>
