<svg
xmlns="http://www.w3.org/2000/svg"
aria-hidden="true"
focusable="false" 
title="CSS 3"   
alt="CSS icon"
id="css3" 
class="fa-css3" 
width="1em"
height="1em"
preserveAspectRatio="xMidYMid meet"
   viewBox="0 0 11.289 11.289"><g stroke-width=".796" transform="translate(-1.433 -361.512) scale(1.25642)"><path d="m 3.6433016,291.93828 c -0.7196612,0 -1.3123235,0.61383 -1.3123235,1.33349 v 1.05833 c 0,0.71966 0.5926623,1.33349 1.3123235,1.33349 h 2.3918156 c 0.7196614,0 1.3123238,-0.61383 1.3123238,-1.33349 v -1.05833 c 0,-0.71966 -0.5926624,-1.33349 -1.3123238,-1.33349 z m 0,0.55033 h 2.3918156 c 0.4444968,0 0.7831608,0.33866 0.7831608,0.78316 v 1.05833 c 0,0.44449 -0.338664,0.80432 -0.7831608,0.80432 H 3.6433016 c -0.4444966,0 -0.7831607,-0.35983 -0.7831607,-0.80432 v -1.05833 c 0,-0.4445 0.3386641,-0.78316 0.7831607,-0.78316 z"/><path d="M3.9184664 292.99661c-.084666.0212-.1481656.0423-.1904986.0847l-.5291628.52916c-.1058325.10584-.1058325.27517 0 .381l.5291628.52916c.2539981.254.6349952-.12699.3809971-.38099l-.3598307-.33867.3598307-.33866c.1693322-.16933.042333-.46566-.1904985-.46566zM5.7599527 292.99661c-.2328315 0-.3598307.29633-.1904987.46566l.3598307.33866-.3598307.33867c-.2328315.254.1269992.63499.3809973.38099l.5291627-.52916c.1058326-.10583.1058326-.27516 0-.381l-.5291627-.52916c-.042333-.0423-.1058325-.0847-.1904986-.0847z"/><path d="m 4.7016273,288.78447 c -0.7196614,0 -1.3123237,0.59266 -1.3123237,1.31232 v 2.11665 c 0,0.35984 0.5291628,0.35984 0.5291628,0 v -2.11665 c 0,-0.44449 0.3386641,-0.80432 0.7831609,-0.80432 h 2.9209782 c 0.4444968,0 0.7831609,0.35983 0.7831609,0.80432 v 3.17498 c 0,0.4445 -0.3386641,0.80433 -0.7831609,0.80433 H 7.0934428 c -0.3598306,0 -0.3598306,0.52916 0,0.52916 h 0.5291627 c 0.7196614,0 1.3123235,-0.61383 1.3123235,-1.33349 v -3.17498 c 0,-0.71966 -0.5926621,-1.31232 -1.3123235,-1.31232 z"/><path d="M4.7016273 289.82163c-.3386643 0-.3386643.52916 0 .52916h.2751645c.3386643 0 .3386643-.52916 0-.52916zM6.0351172 289.82163c-.3598307 0-.3598307.52916 0 .52916h1.5874883c.338664 0 .338664-.52916 0-.52916zM7.347441 290.87995c-.3386643 0-.3386643.52917 0 .52917h.2751645c.338664 0 .338664-.52917 0-.52917zM5.23079 290.87995c-.3386643 0-.3386643.52917 0 .52917h1.0583253c.3598307 0 .3598307-.52917 0-.52917zM4.9556254 292.99661c-.1269992.0212-.2116651.10583-.2328317.21166l-.2751646 1.05833c-.1269992.35983.4444966.50799.5079963.127L5.23079 293.33527c.042333-.16933-.084666-.33866-.2751646-.33866z"/></g></svg>
