<svg xmlns="http://www.w3.org/2000/svg" width="36" height="36" viewBox="0 0 36 36"><path d="M 7.6074219 0 C 3.3925881 0 0 3.3925881 0 7.6074219 L 0 28.392578 C 0 32.607412 3.3925881 36 7.6074219 36 L 28.392578 36 C 32.607412 36 36 32.607412 36 28.392578 L 36 7.6074219 C 36 3.3925881 32.607412 0 28.392578 0 L 7.6074219 0 z M 4.9960938 5 L 31.003906 5 L 31.003906 25 L 18.503906 25 L 18.503906 30 L 22.003906 30 L 22.003906 31 L 14.003906 31 L 14.003906 30 L 17.503906 30 L 17.503906 25 L 4.9960938 25 L 4.9960938 5.5 L 4.9960938 5 z M 5.9960938 6 L 5.9960938 24 L 30.003906 24 L 30.003906 6 L 5.9960938 6 z M 7.9804688 8 L 28.027344 8 L 28.027344 21 L 7.9804688 21 L 7.9804688 8.5 L 7.9804688 8 z M 8.9804688 9 L 8.9804688 20 L 27.027344 20 L 27.027344 9 L 8.9804688 9 z M 11 12 L 13.5 12 L 13.5 13 L 12 13 L 12 16 L 13.5 16 L 13.5 17 L 11 17 L 11 12 z M 14.5 12 L 17.5 12 L 17.5 17 L 14.5 17 L 14.5 12.5 L 14.5 12 z M 18.5 12 L 21.5 12 L 21.5 17 L 18.5 17 L 18.5 12.5 L 18.5 12 z M 22.5 12 L 25 12 L 25 13 L 23.5 13 L 23.5 14 L 24.5 14 L 24.5 15 L 23.5 15 L 23.5 16 L 25 16 L 25 17 L 22.5 17 L 22.5 15 L 22.5 14 L 22.5 12 z M 15.5 13 L 15.5 16 L 16.5 16 L 16.5 13 L 15.5 13 z M 19.5 13 L 19.5 16 L 20.5 16 L 20.5 13 L 19.5 13 z M 18 21.46875 A 1 1 0 0 1 19 22.46875 A 1 1 0 0 1 18 23.46875 A 1 1 0 0 1 17 22.46875 A 1 1 0 0 1 18 21.46875 z "/></svg>