<svg xmlns="http://www.w3.org/2000/svg" width="32pt" height="32pt" viewBox="0 0 11.289 11.289"><g stroke-width=".798" transform="translate(-1.046 -360.006) scale(1.25257)"><path d="m 3.7747692,288.47144 c -0.8889936,0 -1.6086549,0.71966 -1.6086549,1.60866 v 3.68297 c 0,0.88899 0.7196613,1.60866 1.6086549,1.60866 h 3.1326433 c 0.8889933,0 1.6086547,-0.71967 1.6086547,-1.60866 v -3.68297 c 0,-0.889 -0.7196614,-1.60866 -1.6086547,-1.60866 z m 0,0.52917 h 3.1326433 c 0.6138288,0 1.079492,0.48683 1.079492,1.07949 v 3.68297 c 0,0.59266 -0.4656632,1.07949 -1.079492,1.07949 H 3.7747692 c -0.6138289,0 -1.0794922,-0.48683 -1.0794922,-1.07949 v -3.68297 c 0,-0.59266 0.4656633,-1.07949 1.0794922,-1.07949 z"/><path d="M5.3410908 291.79459c-.4444968 0-.8043275.35983-.8043275.78316v.93132c0 .4445.3598307.80433.8043275.80433.4444966 0 .8043272-.35983.8043272-.80433v-.93132c0-.42333-.3598306-.78316-.8043272-.78316zm0 .52916c.1481656 0 .2751646.10583.2751646.254v.93132c0 .14817-.126999.27517-.2751646.27517-.1481656 0-.2751648-.127-.2751648-.27517v-.93132c0-.14817.1269992-.254.2751648-.254zM5.3410908 289.52977c-.4444968 0-.8043275.35983-.8043275.80433 0 .44449.3598307.78316.8043275.78316.4444966 0 .8043272-.33867.8043272-.78316 0-.4445-.3598306-.80433-.8043272-.80433zm0 .52916c.1481656 0 .2751646.127.2751646.27517 0 .14816-.126999.25399-.2751646.25399-.1481656 0-.2751648-.10583-.2751648-.25399 0-.14817.1269992-.27517.2751648-.27517zM2.695277 293.50907c-.3598306 0-.3598306.52917 0 .52917h.7831609v.80432c0 .33867.5291627.33867.5291627 0v-1.05832c.021167-.14817-.1058325-.27517-.2539981-.27517z"/></g></svg>