<svg
xmlns="http://www.w3.org/2000/svg"
aria-hidden="true"
focusable="false" 
title="SASS"   
alt="SASS icon"
id="sass" 
class="fa-sass" 
width="1em"
height="1em"
preserveAspectRatio="xMidYMid meet"
viewBox="0 0 25 25"><path fill="currentColor" fill-rule="evenodd" d="M 12.5 0 A 12.5 12.5 0 0 0 0 12.5 A 12.5 12.5 0 0 0 12.5 25 A 12.5 12.5 0 0 0 25 12.5 A 12.5 12.5 0 0 0 12.5 0 z M 11.009766 5.9960938 L 11.009766 6.9960938 C 10.760813 6.9960938 10.422292 6.9986406 10.208984 7.0566406 C 10.102334 7.0856406 10.040174 7.1255312 10.021484 7.1445312 C 10.002793 7.1635313 9.9960938 7.1523281 9.9960938 7.2363281 L 9.9960938 10.988281 C 9.9960937 11.282581 9.878522 11.471738 9.7636719 11.648438 C 9.6488229 11.825137 9.5136828 11.984612 9.3867188 12.132812 C 9.2773837 12.260313 9.184645 12.368937 9.109375 12.460938 C 9.184551 12.539137 9.2707353 12.624934 9.3789062 12.740234 C 9.6491512 13.028134 10.011719 13.407881 10.011719 13.988281 L 10.011719 17.761719 C 10.011719 17.841719 10.013329 17.825562 10.042969 17.851562 C 10.072611 17.878162 10.160564 17.924125 10.283203 17.953125 C 10.52848 18.010125 10.824122 17.996094 11.009766 17.996094 L 11.009766 18.996094 C 10.953222 18.996094 10.499787 19.034741 10.056641 18.931641 C 9.8350676 18.880041 9.5942394 18.792616 9.3808594 18.603516 C 9.1674784 18.414416 9.0117188 18.099025 9.0117188 17.765625 L 9.0117188 13.990234 C 9.0117188 13.916234 8.8770576 13.669134 8.6503906 13.427734 C 8.5370566 13.306934 8.4159535 13.190359 8.3046875 13.068359 C 8.2490545 13.007359 8.1954681 12.946234 8.1425781 12.865234 C 8.0896881 12.784034 8.0175781 12.679822 8.0175781 12.482422 C 8.0175791 12.287522 8.0798331 12.197234 8.1269531 12.115234 C 8.1740751 12.033434 8.2234238 11.966437 8.2773438 11.898438 C 8.3851887 11.761538 8.5092681 11.623628 8.6269531 11.486328 C 8.7446371 11.349028 8.8551881 11.209116 8.9238281 11.103516 C 8.9924941 11.000216 8.9960938 10.919234 8.9960938 10.990234 L 8.9960938 7.2402344 C 8.9960938 6.9334344 9.120711 6.6366594 9.3125 6.4433594 C 9.50429 6.2500594 9.7322665 6.15175 9.9453125 6.09375 C 10.371405 5.97675 10.789969 5.9960938 11.009766 5.9960938 z M 14.984375 5.9960938 C 15.204173 5.9960938 15.622738 5.97725 16.048828 6.09375 C 16.261875 6.15205 16.489851 6.2481063 16.681641 6.4414062 C 16.873431 6.6347063 16.998047 6.9314812 16.998047 7.2382812 L 16.998047 10.990234 C 16.998047 11.002334 17.132478 11.278397 17.365234 11.529297 C 17.481612 11.654697 17.607015 11.776144 17.71875 11.902344 C 17.774618 11.965544 17.827076 12.030328 17.878906 12.111328 C 17.930729 12.192728 18 12.291434 18 12.490234 C 18 12.691634 17.924411 12.799859 17.869141 12.880859 C 17.813867 12.962059 17.758322 13.022031 17.701172 13.082031 C 17.586883 13.201231 17.462878 13.314141 17.347656 13.431641 C 17.11721 13.666641 16.982422 13.903234 16.982422 13.990234 L 16.982422 17.763672 C 16.982422 18.097072 16.826661 18.414416 16.613281 18.603516 C 16.3999 18.792616 16.159073 18.877688 15.9375 18.929688 C 15.494354 19.032688 15.040915 18.996094 14.984375 18.996094 L 14.984375 17.996094 C 15.17002 17.996094 15.465659 18.010125 15.710938 17.953125 C 15.833576 17.924625 15.921532 17.879516 15.951172 17.853516 C 15.980822 17.826516 15.982422 17.842719 15.982422 17.761719 L 15.982422 13.988281 C 15.982422 13.399481 16.35637 13.012316 16.634766 12.728516 C 16.736793 12.624416 16.813922 12.551516 16.888672 12.478516 C 16.814314 12.399316 16.734903 12.317031 16.632812 12.207031 C 16.364342 11.917631 15.998047 11.566481 15.998047 10.988281 L 15.998047 7.2363281 C 15.998047 7.1543281 15.991346 7.1635313 15.972656 7.1445312 C 15.953967 7.1255312 15.891809 7.0856406 15.785156 7.0566406 C 15.571848 6.9946406 15.233328 6.9960938 14.984375 6.9960938 L 14.984375 5.9960938 z "/>
</svg>