<svg
xmlns="http://www.w3.org/2000/svg"
aria-hidden="true"
focusable="false" 
title="SASS"   
alt="SASS icon"
id="sass" 
class="fa-sass" 
width="1em"
height="1em"
preserveAspectRatio="xMidYMid meet"
viewBox="0 0 2000 560"><path fill="currentColor" d="M370 39.7h98.5V321q0 30.9-11 55.7a125 125 0 01-30.1 42.2 133.81 133.81 0 01-44.8 27 161.63 161.63 0 01-55.5 9.3q-30.9 0-56.9-7.6c-17.3-5.3-32.2-13.1-44.8-23.7a111.4 111.4 0 01-29.3-40.3c-6.9-16.3-10.4-35.7-10.4-58h99.1c0 10.5.9 19.2 2.8 26.2 1.9 6.8 4.6 12.2 8.2 16.3a29.67 29.67 0 0013.2 8.4 58.89 58.89 0 0018 2.5c13.7 0 24.2-5.1 31.5-15.2 7.5-10.3 11.3-24.7 11.3-43.1.2.3.2-281 .2-281M742.4 340.7a48.88 48.88 0 00-2.8-17.2c-1.7-5.3-5.2-10.1-10.4-14.6q-7.95-7.05-22.2-13.8t-37.2-14.4a557.72 557.72 0 01-52.1-20.3 209.22 209.22 0 01-44.5-26.7 125.89 125.89 0 01-31.3-36c-7.7-13.9-11.5-30-11.5-48.4 0-17.6 3.9-33.5 11.8-47.6a108.42 108.42 0 0132.9-36.3q21.15-14.85 49.8-23.1A233.83 233.83 0 01688 34.1q33.45 0 61.7 9c18.8 6 34.9 14.6 48.4 25.6A115.85 115.85 0 01829.6 109c7.7 15.6 11.5 33 11.5 52.4H742.6a57.38 57.38 0 00-3.7-21.1 39.74 39.74 0 00-10.7-16.6 48 48 0 00-17.7-11c-6.9-2.6-15.2-3.9-24.8-3.9a81.27 81.27 0 00-24.8 3.4 52.44 52.44 0 00-18 9 38.31 38.31 0 00-10.7 13.2 35.31 35.31 0 00-3.7 15.8 29.74 29.74 0 005.1 16.9 63.48 63.48 0 0014.9 14.1 165.56 165.56 0 0023.6 12.4c9.4 3.8 19.9 7.5 31.5 11.3A407 407 0 01761.9 228c17.1 8.4 31.4 18.1 43.1 29a110.22 110.22 0 0126.7 36.9q9.3 20.55 9.3 46.5 0 27.6-11 49.3a98.31 98.31 0 01-30.7 36q-19.65 14.7-47.9 22.2-27.9 7.65-62.2 7.6a236.75 236.75 0 01-42-3.7 204.91 204.91 0 01-40-10.7 189 189 0 01-35.5-18.3 126.54 126.54 0 01-28.4-26.7 129.14 129.14 0 01-18.9-35.2c-4.5-13.1-6.8-27.8-6.8-43.9h99.1c0 12 1.6 22.1 4.8 30.4a47.5 47.5 0 0014.1 19.7 57.79 57.79 0 0022.5 11 137.15 137.15 0 0031 3.1c9.4 0 17.4-1 23.9-3.1a52.85 52.85 0 0016.6-8.7 33.32 33.32 0 009.3-13 34.89 34.89 0 003.5-15.7M1239.7 253.1q0 46.95-13.2 84.5t-37.2 63.6a159.76 159.76 0 01-56.6 40.3q-32.7 13.8-71.8 13.8-39.75 0-72.9-13.8a162.69 162.69 0 01-56.9-40.3Q907.4 375 894.2 337.6c-8.8-25-13.2-53.1-13.2-84.5V236.5q0-47 13-84.5 13.2-37.5 36.9-63.6a162.69 162.69 0 0156.9-40.3q33-14.1 72.6-14.1 39.15 0 72.1 14.1a159.76 159.76 0 0156.6 40.3c16 17.5 28.3 38.7 37.2 63.6s13.5 53.1 13.5 84.5l-.1 16.6m-100.6-17.2q0-61-20.6-92.6-20.25-31.8-58.3-31.8-39.75 0-59.4 31.8c-13 21-19.4 51.9-19.4 92.6v17.2c0 40.2 6.7 71 20 92.6s33.1 32.4 59.4 32.4q37.8 0 58-32.1 20.25-32.4 20.3-92.9V235.9M1632.4 449.6h-98.3L1388.8 194.5V449.6H1290V39.7h98.8l145 255.1V39.7h98.5V449.6h.1M1866.4 249.2l25.1-209.5H2131v73.8H1968.5l-9.3 81.4q3.45-2 9.3-4.5a109.34 109.34 0 0113.8-4.8 107.15 107.15 0 0116.9-3.9 104.61 104.61 0 0118.9-1.7q30.45 0 54.1 9.3a101 101 0 0139.7 26.7q16 17.4 24.5 43.1t8.4 58.6a153.43 153.43 0 01-8.7 51.2 127.25 127.25 0 01-25.9 44.2c-11.6 12.8-26.4 23-44.2 30.7s-38.9 11.5-63.3 11.5a175.32 175.32 0 01-53.8-8.4 149.65 149.65 0 01-46.2-24.2 124 124 0 01-32.4-38.6q-12.15-22.5-11.8-51h95.2c.9 15 5.7 26.9 14.4 35.8s20 13.2 34.1 13.2c9.4 0 17.2-1.9 23.4-5.6a40.2 40.2 0 0014.6-15.2 64.57 64.57 0 007.6-22.8 158.69 158.69 0 002.3-27.3 100 100 0 00-3.4-27.3 55.6 55.6 0 00-10.4-20.6 45.37 45.37 0 00-18.3-12.9c-7.3-3.2-16.1-4.8-26.5-4.8a78.28 78.28 0 00-18.3 2 66.64 66.64 0 00-14.1 5.1 48.64 48.64 0 00-10.1 7 47.25 47.25 0 00-7 7.3l-75.6-17.8" transform="translate(.1)"/><path fill="#999" d="M147 551c-19.3-5.4-35.5-12.6-48.4-21.4a118 118 0 01-31.3-30.4A111.18 111.18 0 0150.4 462a180.1 180.1 0 01-4.8-42.2V362.6a84.76 84.76 0 00-2.8-22.8 43.7 43.7 0 00-8.2-17.2 35.77 35.77 0 00-14.1-11.3c-5.6-2.6-12.5-3.9-20.6-3.9V243.5c16 0 27.5-5 34.6-14.9 7.3-10.1 11-23.7 11-40.5V130.9a180.1 180.1 0 014.8-42.2A112.08 112.08 0 0167.2 51.5 117 117 0 0198.5 21.4c13-8.8 29.1-16 48.4-21.4l17.7 49.6a45.11 45.11 0 00-18 12.1 64.28 64.28 0 00-11.3 18.6 93.18 93.18 0 00-5.9 23.4 215.07 215.07 0 00-1.7 27.3v57.2q0 28.2-12.4 51T75.6 275.5q27.3 13.5 39.7 36.6 12.45 22.8 12.4 50.7V420a215.07 215.07 0 001.7 27.3 95.44 95.44 0 005.9 23.4 62.17 62.17 0 0011.3 18.6 45.11 45.11 0 0018 12.1c.1-.2-17.6 49.6-17.6 49.6M1696.6 405.2a47.56 47.56 0 013.7-18.9 44.72 44.72 0 0110.7-14.9 50.66 50.66 0 0116.6-10.1 60.41 60.41 0 0121.4-3.7 57.38 57.38 0 0121.1 3.7 46.83 46.83 0 0116.6 10.1 39.76 39.76 0 0110.7 14.9 47.75 47.75 0 010 37.8 42.49 42.49 0 01-10.7 15.2 51.22 51.22 0 01-16.6 9.9 59.53 59.53 0 01-21.1 3.7 58.26 58.26 0 01-21.4-3.7 52 52 0 01-16.6-9.9 45.38 45.38 0 01-14.4-34.1m0-224.7a47.56 47.56 0 013.7-18.9 44.72 44.72 0 0110.7-14.9 50.66 50.66 0 0116.6-10.1 60.41 60.41 0 0121.4-3.7 57.38 57.38 0 0121.1 3.7 46.83 46.83 0 0116.6 10.1 39.76 39.76 0 0110.7 14.9 47.75 47.75 0 010 37.8 42.49 42.49 0 01-10.7 15.2 51.22 51.22 0 01-16.6 9.9 59.53 59.53 0 01-21.1 3.7 58.26 58.26 0 01-21.4-3.7 52 52 0 01-16.6-9.9 45.38 45.38 0 01-14.4-34.1M2288.1 438.4a134.66 134.66 0 01-4.5 34.3 167.33 167.33 0 01-12.4 32.9 173.68 173.68 0 01-18.6 29.8 147.84 147.84 0 01-22.5 24.5l-47.9-22.5c3-6.4 6.2-12.9 9.6-19.4a178.87 178.87 0 009.9-20.6 164 164 0 007.6-24.2 125.72 125.72 0 003.1-29.6V378h76l-.3 60.4M2336 501.2a46.16 46.16 0 0018-12.1 63 63 0 0011.3-18.6 93.18 93.18 0 005.9-23.4 215.05 215.05 0 001.7-27.3V362.6q0-28.2 12.4-51t40-36.3q-27.6-13.5-40-36.3t-12.4-51V130.8a215.1 215.1 0 00-1.7-27.3 95.46 95.46 0 00-5.9-23.4A62.17 62.17 0 002354 61.5a45.11 45.11 0 00-18-12.1L2353.7 0c19.3 5.4 35.5 12.6 48.4 21.4a114.13 114.13 0 0131.3 30.1A106.76 106.76 0 012450 88.7a170 170 0 015.1 42.2v57.2a98 98 0 002.5 23.1 53.44 53.44 0 008.2 17.5 38.27 38.27 0 0014.1 11c5.8 2.6 12.8 3.9 20.8 3.9v63.9c-16.1 0-27.8 5.1-34.9 15.2-7.1 9.9-10.7 23.3-10.7 40v57.2a170 170 0 01-5.1 42.2 107.58 107.58 0 01-16.6 37.2q-11.85 17.25-31.3 30.4c-13 8.8-29.1 16-48.4 21.4L2336 501.2" transform="translate(.1)"/>
</svg>